<?xml version="1.0" encoding="UTF-8" standalone="no"?>
<!-- Created with Inkscape (http://www.inkscape.org/) -->

<svg
   xmlns:dc="http://purl.org/dc/elements/1.1/"
   xmlns:cc="http://creativecommons.org/ns#"
   xmlns:rdf="http://www.w3.org/1999/02/22-rdf-syntax-ns#"
   xmlns:svg="http://www.w3.org/2000/svg"
   xmlns="http://www.w3.org/2000/svg"
   xmlns:xlink="http://www.w3.org/1999/xlink"
   xmlns:sodipodi="http://sodipodi.sourceforge.net/DTD/sodipodi-0.dtd"
   xmlns:inkscape="http://www.inkscape.org/namespaces/inkscape"
   width="744.09448819"
   height="1052.3622047"
   id="svg2"
   version="1.1"
   inkscape:version="0.48.2 r9819"
   sodipodi:docname="Software-Stack-v2configurator.svg">
  <defs
     id="defs4">
    <linearGradient
       gradientTransform="translate(-52,0)"
       gradientUnits="userSpaceOnUse"
       xlink:href="#linearGradient3820"
       id="linearGradient3834"
       y2="432.48389"
       x2="427.37671"
       y1="547.20599"
       x1="314.62408" />
    <linearGradient
       id="linearGradient3820">
      <stop
         offset="0"
         style="stop-color:#070135;stop-opacity:1"
         id="stop3822" />
      <stop
         offset="1"
         style="stop-color:#612d50;stop-opacity:1"
         id="stop3824" />
    </linearGradient>
    <linearGradient
       inkscape:collect="always"
       xlink:href="#linearGradient3820"
       id="linearGradient3207"
       gradientUnits="userSpaceOnUse"
       gradientTransform="matrix(10.93484404,0,0,11.04889071,-1900.212402,-5264.85375)"
       x1="197.3702087"
       y1="519.3981323"
       x2="203.9528351"
       y2="512.9924927" />
    <linearGradient
       y2="-676.60712"
       x2="137.5"
       y1="-719.58032"
       x1="160.56271"
       gradientTransform="matrix(0.69657731,-0.69657731,0.69657731,0.69657731,411.12284,1615.7075)"
       gradientUnits="userSpaceOnUse"
       id="linearGradient3996"
       xlink:href="#linearGradient5686-0"
       inkscape:collect="always" />
    <linearGradient
       y2="-676.60712"
       x2="137.5"
       y1="-711.78571"
       x1="158.75"
       gradientTransform="matrix(0.69657731,-0.69657731,0.69657731,0.69657731,411.12284,1615.7075)"
       gradientUnits="userSpaceOnUse"
       id="linearGradient3993"
       xlink:href="#linearGradient5686-0"
       inkscape:collect="always" />
    <linearGradient
       y2="-676.60712"
       x2="137.5"
       y1="-711.78571"
       x1="158.75"
       gradientTransform="matrix(0.69657731,-0.69657731,0.69657731,0.69657731,411.12284,1615.7075)"
       gradientUnits="userSpaceOnUse"
       id="linearGradient3970"
       xlink:href="#linearGradient5686-0"
       inkscape:collect="always" />
    <linearGradient
       y2="-676.60712"
       x2="137.5"
       y1="-711.78571"
       x1="158.75"
       gradientTransform="matrix(0.69657731,-0.69657731,0.69657731,0.69657731,409.84458,1613.8765)"
       gradientUnits="userSpaceOnUse"
       id="linearGradient3967"
       xlink:href="#linearGradient5686-0"
       inkscape:collect="always" />
    <linearGradient
       y2="-676.60712"
       x2="137.5"
       y1="-711.78571"
       x1="158.75"
       gradientTransform="matrix(0.69657731,-0.69657731,0.69657731,0.69657731,409.84458,1613.8765)"
       gradientUnits="userSpaceOnUse"
       id="linearGradient3139"
       xlink:href="#linearGradient5686-0"
       inkscape:collect="always" />
    <linearGradient
       id="linearGradient5686-0">
      <stop
         id="stop5688-2"
         offset="0"
         style="stop-color:#ffff00;stop-opacity:1;" />
      <stop
         id="stop5690-5"
         offset="1"
         style="stop-color:#ff0000;stop-opacity:1;" />
    </linearGradient>
    <linearGradient
       gradientUnits="userSpaceOnUse"
       y2="175.03487"
       x2="162.67442"
       y1="14.452718"
       x1="162.67442"
       id="linearGradient4228"
       xlink:href="#linearGradient4222"
       inkscape:collect="always"
       gradientTransform="matrix(2.461495413,0,0,2.461495413,-129.3641552,-64.89489401)" />
    <linearGradient
       id="linearGradient4222"
       inkscape:collect="always">
      <stop
         id="stop4224"
         offset="0"
         style="stop-color:#70b0df;stop-opacity:1" />
      <stop
         style="stop-color:#1b81c5;stop-opacity:1"
         offset="0.5"
         id="stop4230" />
      <stop
         id="stop4226"
         offset="1"
         style="stop-color:#4a98ce;stop-opacity:1" />
    </linearGradient>
    <linearGradient
       gradientTransform="matrix(0.99884,0,0,0.998699,689.00774,-388.84375)"
       gradientUnits="userSpaceOnUse"
       xlink:href="#linearGradient8385"
       id="linearGradient3005"
       y2="525.90759"
       x2="-553.2699"
       y1="413.04492"
       x1="-666.11664" />
    <linearGradient
       gradientTransform="matrix(0.99884,0,0,0.998699,689.00774,-388.84375)"
       gradientUnits="userSpaceOnUse"
       xlink:href="#linearGradient8385"
       id="linearGradient3002"
       y2="413.0452"
       x2="-666.11639"
       y1="525.90778"
       x1="-553.26971" />
    <linearGradient
       id="linearGradient8385">
      <stop
         offset="0"
         style="stop-color:#000000;stop-opacity:1"
         id="stop8387" />
      <stop
         offset="1"
         style="stop-color:#ffffff;stop-opacity:1"
         id="stop8389" />
    </linearGradient>
    <linearGradient
       inkscape:collect="always"
       xlink:href="#linearGradient8385"
       id="linearGradient4312"
       gradientUnits="userSpaceOnUse"
       gradientTransform="matrix(0.99884,0,0,0.998699,689.00774,-388.84375)"
       x1="-666.11664"
       y1="413.04492"
       x2="-553.2699"
       y2="525.90759" />
    <linearGradient
       inkscape:collect="always"
       xlink:href="#linearGradient8385"
       id="linearGradient4314"
       gradientUnits="userSpaceOnUse"
       gradientTransform="matrix(0.99884,0,0,0.998699,689.00774,-388.84375)"
       x1="-553.26971"
       y1="525.90778"
       x2="-666.11639"
       y2="413.0452" />
  </defs>
  <sodipodi:namedview
     id="base"
     pagecolor="#ffffff"
     bordercolor="#666666"
     borderopacity="1.0"
     inkscape:pageopacity="0.0"
     inkscape:pageshadow="2"
     inkscape:zoom="0.9"
     inkscape:cx="340.8385617"
     inkscape:cy="655.7320663"
     inkscape:document-units="px"
     inkscape:current-layer="layer1"
     showgrid="false"
     showguides="false"
     inkscape:guide-bbox="true"
     inkscape:window-width="1680"
     inkscape:window-height="1028"
     inkscape:window-x="-8"
     inkscape:window-y="-8"
     inkscape:window-maximized="0">
    <sodipodi:guide
       orientation="0,1"
       position="776.6666667,1017.777778"
       id="guide4337" />
    <sodipodi:guide
       orientation="1,0"
       position="18.88888891,992.500001"
       id="guide4339" />
    <sodipodi:guide
       orientation="1,0"
       position="415.5555556,871.1111111"
       id="guide4341" />
    <sodipodi:guide
       orientation="1,0"
       position="725.5555556,858.8888889"
       id="guide4343" />
    <sodipodi:guide
       orientation="0,1"
       position="770,334.4444444"
       id="guide4511" />
  </sodipodi:namedview>
  <metadata
     id="metadata7">
    <rdf:RDF>
      <cc:Work
         rdf:about="">
        <dc:format>image/svg+xml</dc:format>
        <dc:type
           rdf:resource="http://purl.org/dc/dcmitype/StillImage" />
        <dc:title></dc:title>
      </cc:Work>
    </rdf:RDF>
  </metadata>
  <g
     inkscape:label="Layer 1"
     inkscape:groupmode="layer"
     id="layer1">
    <g
       id="g3013"
       transform="matrix(0.2552136355,0,0,0.2552136355,504.5910701,34.58440462)">
      <polygon
         id="polygon2989"
         points="107.644,470.877 74.633,100.62 437.367,100.62 404.321,470.819 255.778,512 "
         style="fill:#264de4" />
      <polygon
         id="polygon2991"
         points="404.27,130.894 256,130.894 256,480.523 376.03,447.246 "
         style="fill:#2965f1" />
      <polygon
         id="polygon2993"
         points="154.38,313.627 256,313.627 256,268.217 150.31,268.217 "
         style="fill:#ebebeb" />
      <polygon
         id="polygon2995"
         points="146.26,221.716 256,221.716 256,176.305 255.843,176.305 142.132,176.305 "
         style="fill:#ebebeb" />
      <polygon
         id="polygon2997"
         points="255.791,433.457 256,433.399 256,386.153 255.801,386.206 205.227,372.55 201.994,336.333 177.419,336.333 156.409,336.333 162.771,407.634 "
         style="fill:#ebebeb" />
      <path
         id="path2999"
         d="m 160,0 h 55 v 23 h -32 v 23 h 32 v 23 h -55 z"
         inkscape:connector-curvature="0" />
      <path
         id="path3001"
         d="m 226,0 h 55 v 20 h -32 v 4 h 32 V 70 H 226 V 49 h 32 v -4 h -32 z"
         inkscape:connector-curvature="0" />
      <path
         id="path3003"
         d="m 292,0 h 55 v 20 h -32 v 4 h 32 V 70 H 292 V 49 h 32 v -4 h -32 z"
         inkscape:connector-curvature="0" />
      <polygon
         id="polygon3005"
         points="369.597,176.305 255.843,176.305 255.843,221.716 319.831,221.716 315.699,268.217 255.843,268.217 255.843,313.627 311.761,313.627 306.49,372.521 255.843,386.191 255.843,433.435 348.937,407.634 349.62,399.962 360.291,280.411 361.399,268.217 "
         style="fill:#ffffff" />
    </g>
    <g
       id="g3054"
       transform="matrix(0.2552136355,0,0,0.2552136355,396.5081963,34.58440462)">
      <polygon
         id="polygon3028"
         points="437.367,100.62 404.321,470.819 255.778,512 107.644,470.877 74.633,100.62 "
         style="fill:#e44d26" />
      <polygon
         id="polygon3030"
         points="256,130.894 256,480.523 376.03,447.246 404.27,130.894 "
         style="fill:#f16529" />
      <polygon
         id="polygon3032"
         points="143.219,188.488 154.38,313.627 256,313.627 256,268.217 195.91,268.217 191.76,221.716 256,221.716 256,176.305 255.843,176.305 142.132,176.305 "
         style="fill:#ebebeb" />
      <polygon
         id="polygon3034"
         points="177.419,336.333 156.409,336.333 162.771,407.634 255.791,433.457 256,433.399 256,386.153 255.801,386.206 205.227,372.55 201.994,336.333 "
         style="fill:#ebebeb" />
      <path
         id="path3036"
         d="m 108.382,0 h 23.077 v 22.8 h 21.11 V 0 h 23.078 V 69.044 H 152.57 v -23.12 h -21.11 v 23.12 H 108.383 V 0 z"
         inkscape:connector-curvature="0" />
      <path
         id="path3038"
         d="M 205.994,22.896 H 185.678 V 0 h 63.72 V 22.896 H 229.073 V 69.044 H 205.995 V 22.896 z"
         inkscape:connector-curvature="0" />
      <path
         id="path3040"
         d="m 259.511,0 h 24.063 L 298.376,24.26 313.163,0 h 24.072 V 69.044 H 314.253 V 34.822 l -15.877,24.549 h -0.397 L 282.091,34.822 v 34.222 h -22.58 V 0 z"
         inkscape:connector-curvature="0" />
      <path
         id="path3042"
         d="m 348.72,0 h 23.084 v 46.222 h 32.453 V 69.044 H 348.72 V 0 z"
         inkscape:connector-curvature="0" />
      <polygon
         id="polygon3044"
         points="255.843,313.627 311.761,313.627 306.49,372.521 255.843,386.191 255.843,433.435 348.937,407.634 349.62,399.962 360.291,280.411 361.399,268.217 349.162,268.217 255.843,268.217 "
         style="fill:#ffffff" />
      <polygon
         id="polygon3046"
         points="366.442,211.509 368.511,188.488 369.597,176.305 255.843,176.305 255.843,204.509 255.843,221.605 255.843,221.716 365.385,221.716 365.385,221.716 365.531,221.716 "
         style="fill:#ffffff" />
    </g>
    <g
       id="g3055"
       transform="matrix(0.3173796925,0,0,0.3173796925,626.7790609,29.81577473)">
	<polygon
   id="polygon3057"
   points="13.775,97.632 311.225,97.632 284.127,401.205 162.318,434.975 40.845,401.254 "
   style="fill:#efc725" />

	<polygon
   id="polygon3059"
   points="162.25,408.787 260.678,381.5 283.836,122.083 162.25,122.083 "
   style="fill:#fbde34" />

	<polygon
   id="polygon3061"
   points="120.559,320.272 117.906,290.575 97.756,290.575 80.527,290.575 85.744,349.043 162.021,370.219 162.193,370.17 162.193,331.426 162.031,331.473 "
   style="fill:#ebebeb" />

	<polygon
   id="polygon3063"
   points="167.209,234.7 121.355,234.7 126.732,176.258 167.312,175.177 167.209,136.454 93.065,136.454 90.311,163.903 81.559,261.938 80.651,271.937 90.686,271.937 167.209,271.937 "
   style="fill:#ebebeb" />

	<polygon
   id="polygon3065"
   points="207.791,177.632 211.242,216.079 231.393,216.079 248.623,216.079 242.109,144.133 167.129,136.437 166.957,136.485 166.957,175.229 167.12,175.183 "
   style="fill:#ffffff" />

	<polyline
   id="polyline3067"
   points="244.784,175.343 241.593,136.454 162.99,136.454 162.99,160.606 162.99,175.246 162.99,175.343    244.784,175.343  "
   style="fill:#ffffff" />

	<polygon
   id="polygon3069"
   points="162.064,271.954 207.918,271.954 203.596,320.247 162.064,331.459 162.064,370.201 238.404,349.043 238.963,342.752 247.715,244.717 248.623,234.718 238.588,234.718 162.064,234.718 "
   style="fill:#ffffff" />

	<path
   id="path3071"
   d="M 240,173.693"
   inkscape:connector-curvature="0"
   style="fill:#ffffff" />

	<g
   id="g3073">
		<polygon
   id="polygon3075"
   points="190.256,30.571 215.932,58.431 215.932,71.691 163.049,71.691 163.049,56.165 188.719,56.165 163.049,28.306 163.049,15.025 214.945,15.025 214.945,30.571 214.945,30.571 "
   style="fill:#151515" />

		<path
   id="path3077"
   d="M 153.631,15.05 V 71.667 H 108.088 V 52.953 h 26.613 V 15.05 h 18.928 0.002 z"
   inkscape:connector-curvature="0"
   style="fill:#020202" />

	</g>

	<path
   id="path3079"
   d="M 239.51,173.693"
   inkscape:connector-curvature="0"
   style="fill:#ffffff" />

</g>
    <g
       id="g3191"
       transform="matrix(0.2602721373,0,0,0.2602721373,-122.8359387,520.7733586)">
      <g
         id="g3183">
        <g
           id="g3172"
           transform="matrix(0.3085714403,0,0,0.3085714403,1430.269351,-800.3216091)">
          <g
             id="g3164">
            <g
               transform="matrix(15.623041,0,0,15.623041,-1919.031013,-7802.373404)"
               id="layer1-5">
              <g
                 style="font-size:109.7965011597px;font-style:normal;font-variant:normal;font-weight:normal;font-stretch:normal;text-align:center;line-height:100%;letter-spacing:0px;word-spacing:0px;writing-mode:lr-tb;text-anchor:middle;fill:#ffffff;fill-opacity:1;stroke:none;font-family:Sans;-inkscape-font-specification:Sans"
                 id="text3836"
                 transform="scale(1.0052013,0.99482561)">
                <g
                   id="g3203">
                  <rect
                     rx="10.27040195"
                     width="73.13716125"
                     height="74.20574188"
                     ry="12.5207119"
                     x="253.9178467"
                     y="427.5381165"
                     id="rect3050"
                     style="fill:url(#linearGradient3207);fill-opacity:1;stroke:none" />
                  <path
                     d="m 291.0387409,459.4838936 c 1.8677955,2.87e-5 3.2840545,-0.410481 4.2487827,-1.2315291 0.9646707,-0.8209906 1.4470176,-2.0319947 1.4470463,-3.6330181 -2.87e-5,-1.5804295 -0.4823756,-2.7811712 -1.4470463,-3.602225 -0.9647282,-0.8415098 -2.3809872,-1.2622819 -4.2487827,-1.2623221 l -6.5578981,0 0,9.7290943 6.5578981,0 m 0.4002473,20.1047404 c 2.3809354,5.7e-6 4.1666485,-0.502866 5.3571564,-1.5086268 1.2109754,-1.0057378 1.8164775,-2.5246271 1.8165119,-4.556662 -3.44e-5,-1.9909622 -0.595274,-3.4790583 -1.7857188,-4.4642999 -1.1905079,-1.0057321 -2.9864892,-1.5086039 -5.3879495,-1.5086268 l -6.9581454,0 0,12.0382155 6.9581454,0 m 11.022198,-16.5333028 c 2.545129,0.7389427 4.515572,2.1038894 5.911352,4.0948401 1.3956881,1.9909966 2.093558,4.4335297 2.0935982,7.3276109 -4.02e-5,4.4335183 -1.4984046,7.7381206 -4.4950873,9.9138184 -2.9967574,2.1757036 -7.5534194,3.2635583 -13.669986,3.2635583 l -19.6737059,0 0,-45.9668845 17.7956192,0 c 6.383402,4.59e-5 11.0016387,0.9647454 13.8547217,2.8940984 2.8735276,1.9294391 4.3103114,5.0185241 4.3103574,9.2672666 -4.6e-5,2.2373127 -0.5234427,4.1461867 -1.5702016,5.7266163 -1.0468393,1.5599677 -2.5657285,2.7196596 -4.5566677,3.4790755"
                     id="path3841"
                     style="font-weight:bold;line-height:100%;fill:#ffffff;font-family:Sans;-inkscape-font-specification:Sans Bold"
                     inkscape:connector-curvature="0" />
                </g>
              </g>
            </g>
          </g>
        </g>
      </g>
    </g>
    <g
       id="g4106"
       transform="matrix(0.2916656723,0,0,0.2916656723,302.8335695,310.6049894)">
      <g
         style="fill:#16a1c9;fill-opacity:1"
         transform="translate(1326.273743,-1511.297867)"
         id="g4224">
        <path
           sodipodi:nodetypes="sssscssssscsssssssscsssssssssssssssss"
           inkscape:connector-curvature="0"
           id="path4228"
           d="m -527.71429,1437.465 c -15.82712,-2.0743 -33.98433,-12.9454 -44.19376,-26.4595 -9.75658,-12.9147 -14.26502,-25.5791 -14.29146,-40.1452 -0.0235,-12.9378 3.77229,-22.5301 13.39691,-33.8553 l 2.54952,-3 -2.12777,6 c -1.62293,4.5764 -2.131,8.3726 -2.14139,16 -0.0174,12.7626 3.14495,23.0985 10.37405,33.9069 12.98204,19.4098 33.42343,31.2133 55.9339,32.298 17.21857,0.8297 29.93134,-3.2405 40.68689,-13.0264 l 5.69157,-5.1785 -2.33876,4.1884 c -12.48472,22.3585 -35.47521,32.9498 -63.5397,29.2716 z m 16.48164,-39.9356 c -6.18748,-1.5773 -12.31398,-4.6494 -18.71499,-9.3846 -7.1286,-5.2734 -11.18892,-10.3711 -15.64303,-19.6398 -2.91491,-6.0657 -3.12362,-7.235 -3.12362,-17.5 0,-10.5605 0.13164,-11.2397 3.29509,-17 1.8123,-3.3 4.39709,-7.35 5.74398,-9 l 2.44888,-3 -2.09526,5.5 c -1.70692,4.4806 -2.0202,7.1052 -1.69028,14.1605 0.35422,7.5748 0.88418,9.6301 4.22739,16.3946 11.87321,24.0238 41.06277,35.8902 63.01514,25.6175 3.49666,-1.6363 8.17908,-4.7966 10.40538,-7.0229 4.59413,-4.5942 4.39406,-3.0499 -0.59254,4.5734 -3.95085,6.0399 -11.07587,11.6207 -18.53858,14.5205 -5.8626,2.2781 -22.69486,3.3212 -28.73756,1.7808 z m 12.01836,-36.593 c -6.82134,-3.1615 -12.36714,-8.4008 -15.80469,-14.9314 -3.52674,-6.7 -3.71684,-16.9508 -0.4299,-23.1822 2.83897,-5.3821 4.4112,-6.4204 3.17032,-2.0937 -2.40267,8.3776 0.85107,17.7867 8.95229,25.8879 6.71478,6.7148 14.12295,9.888 23.08439,9.888 6.98303,0 10.4935,-1.1709 14.43225,-4.8136 3.14939,-2.9127 2.73242,-1.6211 -1.18516,3.6712 -5.9473,8.0343 -21.21264,10.6751 -32.2195,5.5738 z"
           style="fill:#16a1c9;fill-opacity:1" />
      </g>
      <path
         style="fill:#121b28"
         d="m 880.578868,-49.248617 -0.62345,-0.6245 2.52089,-10.2099 c 1.38649,-5.6154 2.95964,-10.7724 3.49589,-11.4599 l 0.975,-1.25 5.42301,0 5.42301,0 2.36571,-2.3657 c 1.30115,-1.3012 3.25369,-4.1137 4.33899,-6.25 l 1.97328,-3.8843 6.64628,-30.5415 c 3.65545,-16.7978 7.00169,-31.8728 7.4361,-33.5 l 0.78983,-2.9585 13.17945,-0.279 13.17945,-0.279 0,1.7103 c 0,0.9406 -3.39424,17.3564 -7.54275,36.4795 l -7.54275,34.7693 -2.48225,7.2994 -2.48225,7.2995 -3.44591,5.1908 -3.4459,5.1908 -4.77909,2.8092 -4.7791,2.8092 -15,0.3345 -15,0.3344 -0.62344,-0.6246 z m 325.62345,-37.1701 c -14.96365,-2.9467 -17.04873,-3.7622 -22.33532,-8.7361 -4.2466,-3.9955 -5.64717,-6.7347 -7.13546,-13.9556 l -1.19905,-5.8175 1.12803,-8.6825 1.12803,-8.6825 2.46766,-9.3796 2.46766,-9.3796 2.98808,-6.261 2.98809,-6.261 4.6169,-5.1351 4.6169,-5.1351 4.21414,-2.4696 c 2.31778,-1.3583 6.87819,-3.4512 10.13425,-4.6508 l 5.92008,-2.1811 14.5,-0.073 14.499997,-0.074 5.40974,1.8834 5.40974,1.8834 4.290095,4.2901 4.29009,4.2901 1.68416,5.7933 1.68416,5.7933 -0.60052,9.0332 -0.60052,9.0332 -1.80731,7.5 -1.8073,7.5 -29.891942,0.2651 -29.89194,0.2652 -1.33422,1.1073 -1.33423,1.1073 0,2.3305 c 0,1.2818 0.53761,3.5104 1.19469,4.9525 l 1.19468,2.6221 3.05532,1.675 3.05531,1.675 24.25,0.3281 24.249997,0.3281 -0.0394,2.1719 c -0.0217,1.1946 -0.87401,6.1659 -1.89408,11.0474 l -1.85467,8.8756 -1.35592,0.8591 -1.35591,0.8592 -22.499997,-0.1007 c -12.375,-0.055 -23.4,-0.2779 -24.5,-0.4945 z m 36.499997,-63.4399 0,-4.0658 -1.02964,-1.9239 -1.02966,-1.9239 -2.92069,-1.5103 -2.920687,-1.5104 -6.48456,0 -6.48456,0 -2.8151,1.0636 c -4.8082,1.8167 -11.3151,9.2274 -11.3151,12.8867 l 0,1.0497 17.5,0 17.499997,0 0,-4.0657 z m -252.000007,62.3749 c -1.375,-0.2302 -4.75,-1.112 -7.5,-1.9596 l -5,-1.5411 -5.15127,-3.458 -5.15126,-3.458 -2.64634,-3.8187 c -1.45549,-2.1003 -3.58058,-6.2386 -4.72243,-9.1962 l -2.07609,-5.3776 -0.49169,-9 -0.4917,-9 1.68018,-9 1.68018,-9 2.99489,-9 2.99488,-9 3.60532,-6.5 3.60532,-6.5 7.70593,-7.7421 7.70594,-7.7422 6.37908,-2.9741 c 3.50849,-1.6358 9.2862,-3.7146 12.83935,-4.6196 l 6.46028,-1.6454 12.53972,0.4569 12.53972,0.4568 5.73921,2.2227 5.73921,2.2226 4.76079,3.2658 4.76079,3.2658 3.70641,4.8758 3.70641,4.8759 2.29359,6.0406 2.29359,6.0405 -0.0539,10.5 -0.0539,10.5 -2.74648,9 c -1.51056,4.95 -4.52379,13.8725 -6.69606,19.8277 -2.17235,5.9553 -3.94966,11.4678 -3.94966,12.25 l 0,1.4223 5.83333,0 c 3.20834,0 6.07695,0.2436 6.37471,0.5414 l 0.54136,0.5413 -2.79821,10.4304 c -1.53902,5.7367 -3.08419,10.8931 -3.43372,11.4586 l -0.6355,1.0283 -36.19099,-0.1362 c -19.90504,-0.075 -37.31598,-0.3245 -38.69098,-0.5546 z m 43.90839,-31.0592 c 1.09618,-3.7125 3.84314,-13.275 6.10435,-21.25 l 4.11128,-14.5 -0.31201,-8.5799 -0.312,-8.5798 -2.88391,-3.779 -2.88391,-3.779 -4.11609,-1.8692 -4.11609,-1.8692 -8,-0.012 -8,-0.012 -5,2.3334 -5,2.3333 -3.86179,4.2835 -3.8618,4.2836 -2.95362,6.3117 -2.95363,6.3118 -1.92144,9.3116 -1.92145,9.3116 0.0107,4.5 c 0.006,2.475 0.42012,6.2652 0.92048,8.4226 l 0.90977,3.9226 1.87491,2.5774 1.87494,2.5774 4.40334,2.25 4.40335,2.25 15.74576,0 15.74577,0 1.99307,-6.75 z m 70.09162,31.0592 c -1.375,-0.2302 -4.5546,-1.0776 -7.06578,-1.883 l -4.56578,-1.4646 -3.64135,-3.7308 -3.64135,-3.7308 -1.62652,-4.5 -1.62652,-4.5 -0.0354,-8.6725 -0.0354,-8.6725 5.78652,-27.8275 5.78652,-27.8275 0.95498,-1.25 0.95497,-1.25 11.31854,0 11.31854,0 0.5434,0.8792 0.54341,0.8793 -5.48439,27.3193 -5.48439,27.3192 0,5.1907 0,5.1907 1.75,2.1602 1.75,2.1601 4,0.9268 4,0.9268 7.62756,0.024 7.62755,0.024 1.03385,-1.25 1.03385,-1.25 7.09929,-33 c 3.90462,-18.15 7.53484,-34.0125 8.06716,-35.25 l 0.96786,-2.25 11.52144,0 11.52144,0 0,2.3271 c 0,1.2799 -4.31451,22.5403 -9.58781,47.2453 l -9.5878,44.9181 -1.1622,0.7394 -1.16219,0.7395 -24,-0.1209 c -13.2,-0.066 -25.125,-0.3092 -26.5,-0.5393 z m 167.408392,-0.6873 -0.52884,-1.3781 9.66725,-45.3719 9.66725,-45.3719 1.08518,-1.3341 1.08518,-1.334 31.05779,0.3612 31.05779,0.3612 3.5821,1.6017 3.5821,1.6016 2.15285,2.7369 2.15285,2.7369 1.02382,3.6343 c 0.5631,1.9989 1.30239,5.3218 1.64286,7.3843 l 0.61904,3.75 -28.50537,0 -28.50536,0 -1.01923,1.25 -1.01923,1.25 -6.60321,31.7146 c -3.63177,17.4431 -6.60322,32.3734 -6.60322,33.1786 0,0.8052 -0.70714,2.1711 -1.57143,3.0354 l -1.57143,1.5714 -10.95995,0 -10.95996,0 -0.52883,-1.3781 z m 78.05202,0.3141 -0.6576,-1.0641 2.6674,-10.7518 2.6674,-10.7519 -5.93288,-20.6534 -5.93288,-20.6533 0.53074,-0.5308 c 0.2919,-0.2919 6.5149,-0.5307 13.82888,-0.5307 l 13.29815,0 0.92322,1.75 c 0.50777,0.9625 1.46072,4.3626 2.11767,7.5558 l 1.19446,5.8059 0.87084,-0.3059 c 0.47897,-0.1682 9.455,-12.9058 19.94673,-28.3058 10.49174,-15.4 19.82374,-28.5625 20.7378,-29.25 l 1.66191,-1.25 14.91586,0 14.915858,0 -0.52125,1.3583 c -0.28668,0.7471 -14.851488,20.4346 -32.366248,43.75 l -31.84501,42.3917 -2.38625,9.5 c -1.31243,5.225 -2.7866,10.2875 -3.27592,11.25 l -0.88967,1.75 -12.9058,0 -12.9058,0 -0.65761,-1.064 z m -426.039772,-76.1562 c 0.36118,-2.3539 1.42679,-7.4298 2.36802,-11.2798 l 1.71134,-7 13.25,-0.279 13.25,-0.279 -0.027,1.279 c -0.0149,0.7034 -1.03737,5.779 -2.27223,11.279 l -2.2452,10 -13.3458,0.2798 -13.34581,0.2799 0.65668,-4.2799 z"
         id="path4058"
         inkscape:connector-curvature="0" />
    </g>
    <g
       id="g4177"
       transform="matrix(0.4509819042,0,0,0.4509819042,415.3057116,399.6483213)">
      <g
         id="g4121">
	<polygon
   id="polygon4123"
   points="177.248,57.715 186.407,57.715 229.733,114.75 229.733,57.715 238.394,57.715 238.394,128.516 229.236,128.516 185.914,70.98 185.914,128.516 177.248,128.516 "
   style="fill:#cccccc" />

	<path
   id="path4125"
   d="m 308.698,125.743 c -5.708,2.182 -11.867,3.269 -18.468,3.269 -25.643,0 -38.47,-12.294 -38.47,-36.886 0,-23.271 12.378,-34.908 37.13,-34.908 7.102,0 13.705,0.993 19.807,2.976 v 7.921 c -6.103,-2.311 -12.378,-3.468 -18.817,-3.468 -19.306,0 -28.957,9.163 -28.957,27.479 0,19.638 9.5,29.462 28.518,29.462 3.033,0 6.399,-0.398 10.099,-1.193 v -24.06 h 9.158 l 0,29.408 0,0 z"
   inkscape:connector-curvature="0"
   style="fill:#cccccc" />

	<path
   id="path4127"
   d="M 323.305,101.186 V 57.718 h 9.153 v 43.467 c 0,13.599 6.769,20.406 20.304,20.406 13.531,0 20.3,-6.808 20.3,-20.406 V 57.718 h 9.158 v 43.467 c 0,18.557 -9.819,27.83 -29.458,27.83 -19.638,0.001 -29.457,-9.273 -29.457,-27.829 z"
   inkscape:connector-curvature="0"
   style="fill:#cccccc" />

	<polygon
   id="polygon4129"
   points="398.563,57.715 407.717,57.715 407.717,121.092 444.758,121.092 444.758,128.516 398.563,128.516 "
   style="fill:#cccccc" />

	<polygon
   id="polygon4131"
   points="448.469,128.518 483.669,48.376 518.87,128.518 508.723,128.518 499.56,106.234 476.148,106.234 478.671,98.816 496.495,98.816 483.275,66.728 457.973,128.518 "
   style="fill:#cccccc" />

	<path
   id="path4133"
   d="M 528.526,128.516 V 57.715 h 30.203 c 13.469,0 20.201,5.663 20.201,16.981 0,9.212 -6.581,16.029 -19.754,20.447 l 24.309,33.373 H 571.404 L 548.88,96.682 v -5.986 c 13.53,-2.151 20.295,-7.349 20.295,-15.598 0,-6.533 -3.762,-9.806 -11.283,-9.806 h -20.206 v 63.227 h -9.159 l -0.001,-0.003 0,0 z"
   inkscape:connector-curvature="0"
   style="fill:#cccccc" />

	<path
   id="path4135"
   d="m 617.798,57.715 v 50.404 c 0,13.598 -8.005,20.396 -24.017,20.396 v -7.425 c 9.904,0 14.857,-4.329 14.857,-12.972 V 57.715 h 9.16 z"
   inkscape:connector-curvature="0"
   style="fill:#cccccc" />

	<path
   id="path4137"
   d="m 634.137,126.04 v -8.418 c 7.429,2.64 15.447,3.965 24.063,3.965 12.18,0 18.272,-4.457 18.272,-13.376 0,-7.58 -4.493,-11.385 -13.47,-11.385 h -9.113 c -14.817,0 -22.233,-6.432 -22.233,-19.306 0,-13.531 9.495,-20.304 28.479,-20.304 8.249,0 15.922,0.998 23.021,2.976 v 8.417 c -7.101,-2.643 -14.772,-3.964 -23.021,-3.964 -12.875,0 -19.311,4.293 -19.311,12.875 0,7.588 4.354,11.385 13.065,11.385 h 9.113 c 15.08,0 22.628,6.441 22.628,19.306 0,13.868 -9.142,20.801 -27.432,20.801 -8.614,0 -16.632,-0.994 -24.061,-2.972 z"
   inkscape:connector-curvature="0"
   style="fill:#cccccc" />

	<polygon
   id="polygon4139"
   points="179.565,55.402 188.723,55.402 232.045,112.438 232.045,55.402 240.711,55.402 240.711,126.203 231.552,126.203 188.227,68.667 188.227,126.203 179.565,126.203 " />

	<path
   id="path4141"
   d="m 311.015,123.43 c -5.708,2.182 -11.864,3.268 -18.467,3.268 -25.645,0 -38.47,-12.293 -38.47,-36.885 0,-23.271 12.378,-34.909 37.135,-34.909 7.096,0 13.7,0.994 19.802,2.976 v 7.92 c -6.103,-2.311 -12.378,-3.468 -18.813,-3.468 -19.307,0 -28.96,9.163 -28.96,27.479 0,19.639 9.504,29.463 28.517,29.463 3.034,0 6.404,-0.396 10.103,-1.193 V 94.02 h 9.154 l -0.001,29.41 0,0 z"
   inkscape:connector-curvature="0" />

	<path
   id="path4143"
   d="M 325.621,98.871 V 55.398 h 9.153 V 98.87 c 0,13.598 6.769,20.401 20.305,20.401 13.53,0 20.299,-6.804 20.299,-20.401 V 55.398 h 9.158 V 98.87 c 0,18.556 -9.819,27.825 -29.457,27.825 -19.639,0 -29.458,-9.267 -29.458,-27.824 z"
   inkscape:connector-curvature="0" />

	<polygon
   id="polygon4145"
   points="400.88,55.398 410.034,55.398 410.034,118.775 447.071,118.775 447.071,126.199 400.88,126.199 " />

	<polygon
   id="polygon4147"
   points="450.785,126.202 485.987,46.056 521.188,126.202 511.035,126.202 501.877,103.92 478.46,103.92 480.989,96.496 498.808,96.496 485.592,64.408 460.29,126.202 " />

	<path
   id="path4149"
   d="M 530.843,126.203 V 55.402 h 30.202 c 13.47,0 20.196,5.659 20.196,16.982 0,9.207 -6.577,16.028 -19.749,20.445 l 24.31,33.374 H 573.716 L 551.195,94.368 v -5.992 c 13.531,-2.151 20.299,-7.344 20.299,-15.598 0,-6.533 -3.766,-9.801 -11.292,-9.801 h -20.2 v 63.226 c 0,0 -9.159,0 -9.159,0 z"
   inkscape:connector-curvature="0" />

	<path
   id="path4151"
   d="m 620.115,55.398 v 50.405 c 0,13.602 -8.005,20.396 -24.016,20.396 v -7.424 c 9.903,0 14.856,-4.33 14.856,-12.973 V 55.398 h 9.16 z"
   inkscape:connector-curvature="0"
   style="fill:#a6120d" />

	<path
   id="path4153"
   d="m 636.45,123.723 v -8.416 c 7.43,2.639 15.447,3.965 24.064,3.965 12.179,0 18.271,-4.459 18.271,-13.373 0,-7.584 -4.492,-11.385 -13.47,-11.385 h -9.113 c -14.817,0 -22.232,-6.436 -22.232,-19.311 0,-13.531 9.491,-20.303 28.478,-20.303 8.249,0 15.923,0.998 23.022,2.976 v 8.418 c -7.102,-2.644 -14.773,-3.965 -23.022,-3.965 -12.875,0 -19.311,4.293 -19.311,12.875 0,7.588 4.351,11.385 13.065,11.385 h 9.113 c 15.079,0 22.628,6.438 22.628,19.31 0,13.865 -9.141,20.797 -27.431,20.797 -8.614,-0.001 -16.633,-0.995 -24.062,-2.973 z"
   inkscape:connector-curvature="0"
   style="fill:#a6120d" />

	
</g>
      <g
         id="g4157">
	<polygon
   id="polygon4159"
   points="166.462,29.46 83.243,0.875 0.554,29.975 13.621,138.311 83.331,176.625 153.4,137.792 "
   style="fill:#b3b3b3" />

	<polygon
   id="polygon4161"
   points="83.05,10.089 83.05,167.471 146.041,132.609 158.214,35.721 "
   style="fill:#a6120d" />

	<polygon
   id="polygon4163"
   points="21.03,133.072 83.049,167.471 83.049,10.086 9.833,36.183 "
   style="fill:#dd1b16" />

	<path
   id="path4165"
   d="m 103.74,93.871 -20.69,9.675 H 61.243 L 50.992,129.186 31.925,129.539 83.05,15.804 103.74,93.871 z M 101.74,89 83.187,52.271 67.969,88.368 h 15.08 L 101.74,89 z"
   inkscape:connector-curvature="0"
   style="fill:#f2f2f2" />

	<polygon
   id="polygon4167"
   points="107.062,103.546 118.285,129.543 136.529,129.881 83.049,15.804 83.186,52.271 100.454,88.396 83.088,88.396 83.049,103.523 "
   style="fill:#b3b3b3" />

</g>
    </g>
    <g
       id="g4225"
       transform="matrix(0.3337468532,0,0,0.3337468532,596.4150776,594.2437054)">
      <g
         transform="translate(0,2)"
         style="fill:#8c96a1;fill-opacity:1"
         id="g4204">
        <path
           inkscape:connector-curvature="0"
           id="path4206"
           d="m 48.822266,90.923828 -36.617188,82.017582 23.949219,0 7.119141,-17.38282 36.802734,0 7.11914,17.38282 23.949218,0 -36.708983,-82.017582 -25.613281,0 z m 13.005859,19.337892 6.212891,15.5957 6.21289,15.59766 -12.388672,0.0293 -12.388672,0.0312 6.175782,-15.62695 6.175781,-15.62695 z"
           style="fill:#8c96a1;fill-opacity:1;fill-rule:evenodd;stroke:none" />
        <path
           inkscape:connector-curvature="0"
           style="fill:#8c96a1;fill-opacity:1;fill-rule:evenodd;stroke:none"
           d="m 226.42503,90.923828 -36.61718,82.017582 23.94922,0 7.11914,-17.38282 36.80273,0 7.11914,17.38282 23.94922,0 -36.70898,-82.017582 -25.61329,0 z m 13.00586,19.337892 6.21289,15.5957 6.21289,15.59766 -12.38867,0.0293 -12.38867,0.0312 6.17578,-15.62695 6.17578,-15.62695 z"
           id="path4208" />
        <path
           inkscape:connector-curvature="0"
           id="path4210"
           d="m 295.01111,90.641009 27.19958,0 17.39204,26.153451 18.43818,-26.153451 26.80728,0 -32.29951,39.753241 34.39178,42.82998 -27.19958,0 -19.74585,-27.92252 -19.35355,27.92252 -29.03032,0 35.04561,-42.43768 z"
           style="fill:#8c96a1;fill-opacity:1;fill-rule:evenodd;stroke:none" />
        <path
           inkscape:connector-curvature="0"
           id="path4212"
           d="m 179.94141,55.929688 -32.56055,32.02539 11.20898,10.142578 10.60352,-10.660156 1.18359,0.002 0,61.154297 c 0,7.76349 -6.25018,14.01367 -14.01367,14.01367 l -11.13476,0 c -7.76349,0 -14.01368,-6.25018 -14.01368,-14.01367 l 0,-6.52734 -21.65039,0 0,8.1289 c 0,14.03603 11.29991,25.33594 25.33594,25.33594 l 28.76563,0 c 14.03602,0 25.33593,-11.29991 25.33593,-25.33594 l 0,-62.712888 0.83789,0.002 12.38672,10.613281 9.74024,-10.142578 -32.02539,-32.02539 z"
           style="color:#000000;fill:#8c96a1;fill-opacity:1;fill-rule:nonzero;stroke:none;stroke-width:4.5;marker:none;visibility:visible;display:inline;overflow:visible;enable-background:accumulate" />
        <path
           inkscape:connector-curvature="0"
           style="color:#000000;fill:#8c96a1;fill-opacity:1;fill-rule:nonzero;stroke:none;stroke-width:4.5;marker:none;visibility:visible;display:inline;overflow:visible;enable-background:accumulate"
           d="m 120.2293,135.33257 32.56055,-32.02539 -11.20898,-10.142583 -10.60352,10.660153 -1.18359,-0.002 0,-61.154295 c 0,-7.76349 6.25018,-14.01367 14.01367,-14.01367 l 11.13476,0 c 7.76349,0 14.01368,6.25018 14.01368,14.01367 l 0,6.52734 21.65039,0 0,-8.1289 c 0,-14.03603 -11.29991,-25.33594 -25.33594,-25.33594 l -28.76563,0 c -14.03602,0 -25.33593,11.29991 -25.33593,25.33594 l 0,62.712895 -0.83789,-0.002 -12.386718,-10.613293 -9.74024,10.142583 32.025388,32.02539 z"
           id="path4214" />
      </g>
      <path
         id="path3338"
         d="m 136.50391,15.730469 c -14.03602,0 -25.33594,11.299907 -25.33594,25.335937 l 0,62.712894 -0.83789,-0.00196 -12.386721,-10.613278 -9.740234,10.142578 32.025395,32.02539 32.56054,-32.02539 -11.20898,-10.142578 -10.60352,10.660158 -1.18359,-0.00195 0,-61.154301 c 0,-7.76349 6.25018,-14.013672 14.01367,-14.013672 l 11.13477,0 c 7.76349,0 14.01367,6.250182 14.01367,14.013672 l 0,6.527343 21.65039,0 0,-8.128906 c 0,-14.03603 -11.29991,-25.335937 -25.33594,-25.335937 l -28.76562,0 z m 43.4375,40.199219 -32.56055,32.02539 11.20898,10.142578 10.60352,-10.660156 1.18359,0.001953 0,61.154297 c 0,7.76349 -6.25018,14.01367 -14.01367,14.01367 l -11.13476,0 c -7.76349,0 -14.01368,-6.25018 -14.01368,-14.01367 l 0,-6.52734 -21.65039,0 0,8.1289 c 0,14.03603 11.29991,25.33594 25.33594,25.33594 l 28.76563,0 c 14.03602,0 25.33593,-11.29991 25.33593,-25.33594 l 0,-62.712888 0.83789,0.001953 12.38672,10.613281 9.74024,-10.142578 -32.02539,-32.02539 z m 115.07031,34.710937 31.64453,40.146485 -35.04492,42.4375 29.02929,0 19.35352,-27.92383 19.74609,27.92383 27.20118,0 -34.39258,-42.83008 32.29883,-39.753905 -26.80664,0 -18.4375,26.154295 -17.39258,-26.154295 -27.19922,0 z m -246.189454,0.283203 -36.617188,82.017582 23.949219,0 7.119141,-17.38282 36.802734,0 7.11914,17.38282 23.949218,0 -36.708983,-82.017582 -25.613281,0 z m 177.603514,0 -36.61719,82.017582 23.94922,0 7.11914,-17.38282 36.80274,0 7.11914,17.38282 23.94922,0 -36.70899,-82.017582 -25.61328,0 z m -164.597655,19.337892 6.212891,15.5957 6.21289,15.59766 -12.388672,0.0293 -12.388672,0.03124 6.175782,-15.62695 6.175781,-15.62695 z m 177.603515,0 6.21289,15.5957 6.21289,15.59766 -12.38867,0.0293 -12.38867,0.03124 6.17578,-15.62695 6.17578,-15.62695 z"
         style="fill:url(#linearGradient4228);fill-opacity:1;fill-rule:evenodd;stroke:#0c4c75;stroke-width:0.5;stroke-linecap:butt;stroke-linejoin:miter;stroke-miterlimit:4;stroke-opacity:1;stroke-dasharray:none"
         inkscape:connector-curvature="0" />
    </g>
    <g
       id="g4302"
       transform="matrix(0.7245776741,0,0,0.7245776741,-216.8503439,359.2648591)">
      <g
         transform="matrix(0.3260388052,0,0,0.3260388052,975.1043337,353.6437536)"
         id="g4252">
        <path
           inkscape:connector-curvature="0"
           d="m 79.8646,119.09957 c 35.39768,48.25534 70.03957,-13.46852 69.98868,-50.58675 C 149.79308,24.62677 105.31237,0.09913 79.8356,0.09913 38.94318,0.09913 0,33.89521 0,80.13502 c 0,51.396 44.64038,79.86497 79.8356,79.86497 -7.96447,-1.14675 -34.5062,-6.83395 -34.86292,-67.96677 -0.23987,-41.3466 13.48757,-57.86551 34.80527,-50.59905 0.47743,0.17707 23.51392,9.26451 23.51392,38.95053 0,29.55992 -23.42727,38.71487 -23.42727,38.71487 z"
           id="path7508"
           style="color:#000000;fill:url(#linearGradient4312);fill-opacity:1;fill-rule:evenodd;stroke:none;stroke-width:0.5;marker:none;visibility:visible;display:inline;overflow:visible" />
        <path
           inkscape:connector-curvature="0"
           d="M 79.82327,41.40081 C 56.43322,33.33893 27.78025,52.61662 27.78025,91.22962 c 0,63.04798 46.72055,68.77037 52.38416,68.77037 C 121.05683,159.99999 160,126.20391 160,79.9641 160,28.5681 115.35962,0.09913 80.16441,0.09913 c 9.74811,-1.35 52.54087,10.54991 52.54087,69.0368 0,38.14117 -31.95286,58.90496 -52.73547,50.03344 -0.47743,-0.17707 -23.51392,-9.26451 -23.51392,-38.95053 0,-29.55992 23.36738,-38.81803 23.36738,-38.81803 z"
           id="path7510"
           style="color:#000000;fill:url(#linearGradient4314);fill-opacity:1;fill-rule:evenodd;stroke:none;stroke-width:0.5;marker:none;visibility:visible;display:inline;overflow:visible" />
      </g>
      <path
         d="m 891.073667,405.6694909 c -2.62e-5,1.898435 0.6562232,3.2871055 1.96875,4.1660156 1.3124706,0.8789007 3.6562182,1.3417908 7.03125,1.3886719 l 0,5.2734375 c -10.2656499,-0.1406363 -15.3984573,-3.5742266 -15.3984375,-10.3007813 l 0,-11.7421875 c -1.98e-5,-4.4296724 -3.9609533,-6.6445139 -11.8828125,-6.6445312 l 0,-5.4492188 c 7.9218592,2.28e-5 11.8827927,-2.2148187 11.8828125,-6.6445312 l 0,-11.7070313 c -1.98e-5,-6.7265146 5.1327876,-10.1601049 15.3984375,-10.3007812 l 0,5.2382812 c -3.3750318,0.046921 -5.7187794,0.5098113 -7.03125,1.3886719 -1.3125268,0.8789502 -1.9687762,2.2676206 -1.96875,4.1660156 l 0,11.671875 c -2.62e-5,4.8515866 -2.7304922,7.7578337 -8.1914062,8.71875 l 0,0.421875 c 5.460914,0.9609564 8.19138,3.8672035 8.1914062,8.71875 z"
         style="font-size:72px;font-style:normal;font-variant:normal;font-weight:normal;font-stretch:normal;line-height:125%;letter-spacing:0px;word-spacing:0px;fill:#1c59a5;fill-opacity:1;stroke:none;font-family:Droid Sans Mono;-inkscape-font-specification:Droid Sans Mono"
         id="path4282"
         inkscape:connector-curvature="0" />
      <path
         d="m 898.870542,403.7358971 0,-5.8359375 c 3.7968664,1.4531308 7.4179566,2.1796926 10.8632813,2.1796875 3.773418,5.1e-6 6.7499776,-0.9316346 8.9296875,-2.7949218 2.1796607,-1.8632716 3.2695034,-4.5175658 3.2695312,-7.9628907 l 0,-35.6132812 6.5390625,0 0,35.5429687 c -3.44e-5,5.0625108 -1.6465171,9.0878974 -4.9394531,12.0761719 -3.2929949,2.9882821 -7.7168186,4.4824212 -13.2714844,4.4824219 -5.0859486,-7e-7 -8.8828198,-0.6914063 -11.390625,-2.0742188 z"
         style="font-size:72px;font-style:normal;font-variant:normal;font-weight:normal;font-stretch:normal;line-height:125%;letter-spacing:0px;word-spacing:0px;fill:#1c59a5;fill-opacity:1;stroke:none;font-family:Droid Sans Mono;-inkscape-font-specification:Droid Sans Mono"
         id="path4284"
         inkscape:connector-curvature="0" />
      <path
         d="m 936.183042,403.3843346 0,-6.2578125 c 4.9453026,2.015631 9.7968603,3.0234425 14.5546875,3.0234375 8.2030973,5e-6 12.3046557,-2.8124922 12.3046875,-8.4375 -3.18e-5,-2.4374841 -0.8262028,-4.3124822 -2.4785156,-5.625 -1.6523714,-1.3124796 -4.9980712,-2.8710718 -10.0371094,-4.6757812 -4.8750144,-1.7109121 -8.3730578,-3.7558319 -10.4941406,-6.1347656 -2.1211004,-2.3788741 -3.1816462,-5.4667616 -3.1816406,-9.2636719 -5.6e-6,-4.0780818 1.5058522,-7.271438 4.5175781,-9.5800781 3.0117056,-2.3085428 7.1425609,-3.4628385 12.3925781,-3.4628907 5.3671596,5.22e-5 10.2421548,0.9141138 14.625,2.7421875 l -2.25,5.765625 c -4.5234679,-1.8280795 -8.7422136,-2.7421411 -12.65625,-2.7421875 -6.8672029,4.64e-5 -10.3007932,2.4492627 -10.3007812,7.3476563 -1.2e-5,2.3906616 0.7675654,4.3125347 2.3027344,5.765625 1.5351404,1.4531568 4.7050591,3.011749 9.5097656,4.6757812 5.7655955,2.0625266 9.615201,4.1894776 11.5488281,6.3808594 1.9335565,2.1914263 2.9003524,5.0097828 2.9003906,8.4550781 -3.82e-5,4.5000093 -1.6230834,8.0332089 -4.8691406,10.5996094 -3.2461238,2.5664068 -7.8574474,3.8496087 -13.8339844,3.8496094 -6.2109508,-7e-7 -11.0625084,-0.8085937 -14.5546875,-2.4257813 z"
         style="font-size:72px;font-style:normal;font-variant:normal;font-weight:normal;font-stretch:normal;line-height:125%;letter-spacing:0px;word-spacing:0px;fill:#1c59a5;fill-opacity:1;stroke:none;font-family:Droid Sans Mono;-inkscape-font-specification:Droid Sans Mono"
         id="path4286"
         inkscape:connector-curvature="0" />
      <path
         d="m 1067.98378,404.9875961 -7.558594,0 -20.390625,-42.5390625 -0.28125,0 c 0.421864,6.4922235 0.632802,11.3789374 0.632813,14.6601562 l 0,27.8789063 -6.046875,0 0,-51.3984375 7.488281,0 20.320312,42.328125 0.210938,0 c -0.328158,-7.1015463 -0.49222,-11.8359166 -0.492188,-14.203125 l 0,-28.125 6.117188,0 z"
         style="font-size:72px;font-style:normal;font-variant:normal;font-weight:normal;font-stretch:normal;line-height:125%;letter-spacing:0px;word-spacing:0px;fill:#1c59a5;fill-opacity:1;stroke:none;font-family:Droid Sans Mono;-inkscape-font-specification:Droid Sans Mono"
         id="path4290"
         inkscape:connector-curvature="0" />
      <path
         d="m 1083.745499,393.9133773 c -1.7e-5,-4.8515465 2.742167,-7.7577936 8.226562,-8.71875 l 0,-0.421875 c -5.484395,-0.9609163 -8.226579,-3.8671634 -8.226562,-8.71875 l 0,-11.671875 c -1.7e-5,-1.898395 -0.662126,-3.2929248 -1.986329,-4.1835937 -1.324232,-0.8905793 -3.66212,-1.3476101 -7.013671,-1.3710938 l 0,-5.2382812 c 10.289044,0.1406763 15.43357,3.5742666 15.433593,10.3007812 l 0,11.7070313 c -2.3e-5,4.4297125 3.96091,6.644554 11.882813,6.6445312 l 0,5.4492188 c -7.921903,1.73e-5 -11.882836,2.2148588 -11.882813,6.6445312 l 0,11.7421875 c -2.3e-5,6.7265547 -5.144549,10.160145 -15.433593,10.3007813 l 0,-5.2734375 c 3.351551,-0.023444 5.689439,-0.4804744 7.013671,-1.3710938 1.324203,-0.8906288 1.986312,-2.2851587 1.986329,-4.1835937 z"
         style="font-size:72px;font-style:normal;font-variant:normal;font-weight:normal;font-stretch:normal;line-height:125%;letter-spacing:0px;word-spacing:0px;fill:#1c59a5;fill-opacity:1;stroke:none;font-family:Droid Sans Mono;-inkscape-font-specification:Droid Sans Mono"
         id="path4292"
         inkscape:connector-curvature="0" />
    </g>
    <text
       xml:space="preserve"
       style="font-size:6px;font-style:normal;font-variant:normal;font-weight:normal;font-stretch:normal;line-height:125%;letter-spacing:0px;word-spacing:0px;fill:#3491ff;fill-opacity:1;stroke:none;font-family:ocra10;-inkscape-font-specification:ocra10"
       x="18.888889"
       y="59.862183"
       id="text2985-8-1-9"
       sodipodi:linespacing="125%"><tspan
         sodipodi:role="line"
         id="tspan2987-2-7-4"
         x="18.888889"
         y="59.862183"
         style="font-size:32px;font-style:normal;font-variant:normal;font-weight:200;font-stretch:normal;text-align:start;line-height:125%;writing-mode:lr-tb;text-anchor:start;fill:#3491ff;fill-opacity:1;font-family:DejaVu Sans Light;-inkscape-font-specification:'DejaVu Sans Light, Ultra-Light'">Modern Web App</tspan><tspan
         sodipodi:role="line"
         x="18.888889"
         y="86.549606"
         style="font-size:18px;font-style:normal;font-variant:normal;font-weight:bold;font-stretch:normal;text-align:start;line-height:150%;writing-mode:lr-tb;text-anchor:start;fill:#3491ff;fill-opacity:1;font-family:DejaVu Sans;-inkscape-font-specification:DejaVu Sans Bold"
         id="tspan3484-8">HTML5 + CSS3 + JavaScript </tspan><tspan
         sodipodi:role="line"
         x="18.888889"
         y="107.54066"
         style="font-size:14px;font-style:normal;font-variant:normal;font-weight:normal;font-stretch:normal;text-align:start;line-height:125%;writing-mode:lr-tb;text-anchor:start;fill:#3491ff;fill-opacity:1;font-family:DejaVu Sans;-inkscape-font-specification:DejaVu Sans"
         id="tspan5066">The standard ingredients for a modern</tspan><tspan
         sodipodi:role="line"
         x="18.888889"
         y="125.04066"
         style="font-size:14px;font-style:normal;font-variant:normal;font-weight:normal;font-stretch:normal;text-align:start;line-height:125%;writing-mode:lr-tb;text-anchor:start;fill:#3491ff;fill-opacity:1;font-family:DejaVu Sans;-inkscape-font-specification:DejaVu Sans"
         id="tspan4335">Web Application.</tspan><tspan
         sodipodi:role="line"
         x="18.888889"
         y="142.54066"
         style="font-size:14px;font-style:normal;font-variant:normal;font-weight:200;font-stretch:normal;text-align:start;line-height:125%;writing-mode:lr-tb;text-anchor:start;fill:#3491ff;fill-opacity:1;font-family:DejaVu Sans Light;-inkscape-font-specification:'DejaVu Sans Light, Ultra-Light'"
         id="tspan3492-4" /></text>
    <text
       xml:space="preserve"
       style="font-size:6px;font-style:normal;font-variant:normal;font-weight:normal;font-stretch:normal;line-height:125%;letter-spacing:0px;word-spacing:0px;fill:#3491ff;fill-opacity:1;stroke:none;font-family:ocra10;-inkscape-font-specification:ocra10"
       x="18.888889"
       y="240.5032"
       id="text2985-8-1-9-9"
       sodipodi:linespacing="125%"><tspan
         sodipodi:role="line"
         id="tspan2987-2-7-4-5"
         x="18.888889"
         y="240.5032"
         style="font-size:32px;font-style:normal;font-variant:normal;font-weight:200;font-stretch:normal;text-align:start;line-height:125%;writing-mode:lr-tb;text-anchor:start;fill:#3491ff;fill-opacity:1;font-family:DejaVu Sans Light;-inkscape-font-specification:'DejaVu Sans Light, Ultra-Light'">Styling &amp; Responsive</tspan><tspan
         sodipodi:role="line"
         x="18.888889"
         y="267.19064"
         style="font-size:18px;font-style:normal;font-variant:normal;font-weight:bold;font-stretch:normal;text-align:start;line-height:150%;writing-mode:lr-tb;text-anchor:start;fill:#3491ff;fill-opacity:1;font-family:DejaVu Sans;-inkscape-font-specification:DejaVu Sans Bold"
         id="tspan3484-8-4">Bootstrap + jQuery </tspan><tspan
         sodipodi:role="line"
         x="18.888889"
         y="288.18167"
         style="font-size:14px;font-style:normal;font-variant:normal;font-weight:normal;font-stretch:normal;text-align:start;line-height:125%;writing-mode:lr-tb;text-anchor:start;fill:#3491ff;fill-opacity:1;font-family:DejaVu Sans;-inkscape-font-specification:DejaVu Sans"
         id="tspan4392">Bootstrap is the elegant, responsive,  mobile first </tspan><tspan
         sodipodi:role="line"
         x="18.888889"
         y="305.68167"
         style="font-size:14px;font-style:normal;font-variant:normal;font-weight:normal;font-stretch:normal;text-align:start;line-height:125%;writing-mode:lr-tb;text-anchor:start;fill:#3491ff;fill-opacity:1;font-family:DejaVu Sans;-inkscape-font-specification:DejaVu Sans"
         id="tspan4399">frame work with great styling. jQuery is a</tspan><tspan
         sodipodi:role="line"
         x="18.888889"
         y="323.18167"
         style="font-size:14px;font-style:normal;font-variant:normal;font-weight:normal;font-stretch:normal;text-align:start;line-height:125%;writing-mode:lr-tb;text-anchor:start;fill:#3491ff;fill-opacity:1;font-family:DejaVu Sans;-inkscape-font-specification:DejaVu Sans"
         id="tspan4405">requirement of Bootstrap. In other words: Make</tspan><tspan
         sodipodi:role="line"
         x="18.888889"
         y="340.68167"
         style="font-size:14px;font-style:normal;font-variant:normal;font-weight:normal;font-stretch:normal;text-align:start;line-height:125%;writing-mode:lr-tb;text-anchor:start;fill:#3491ff;fill-opacity:1;font-family:DejaVu Sans;-inkscape-font-specification:DejaVu Sans"
         id="tspan4583">V²Configurator look good and work on mobile, </tspan><tspan
         sodipodi:role="line"
         x="18.888889"
         y="358.18167"
         style="font-size:14px;font-style:normal;font-variant:normal;font-weight:normal;font-stretch:normal;text-align:start;line-height:125%;writing-mode:lr-tb;text-anchor:start;fill:#3491ff;fill-opacity:1;font-family:DejaVu Sans;-inkscape-font-specification:DejaVu Sans"
         id="tspan4585">tablet and the big screen.</tspan><tspan
         sodipodi:role="line"
         x="18.888889"
         y="375.68167"
         style="font-size:14px;font-style:normal;font-variant:normal;font-weight:200;font-stretch:normal;text-align:start;line-height:125%;writing-mode:lr-tb;text-anchor:start;fill:#3491ff;fill-opacity:1;font-family:DejaVu Sans Light;-inkscape-font-specification:'DejaVu Sans Light, Ultra-Light'"
         id="tspan3492-4-2" /></text>
    <text
       xml:space="preserve"
       style="font-size:6px;font-style:normal;font-variant:normal;font-weight:normal;font-stretch:normal;line-height:125%;letter-spacing:0px;word-spacing:0px;fill:#3491ff;fill-opacity:1;stroke:none;font-family:ocra10;-inkscape-font-specification:ocra10"
       x="18.888889"
       y="424.61203"
       id="text2985-8-1-9-9-3"
       sodipodi:linespacing="125%"><tspan
         sodipodi:role="line"
         id="tspan2987-2-7-4-5-3"
         x="18.888889"
         y="424.61203"
         style="font-size:32px;font-style:normal;font-variant:normal;font-weight:200;font-stretch:normal;text-align:start;line-height:125%;writing-mode:lr-tb;text-anchor:start;fill:#3491ff;fill-opacity:1;font-family:DejaVu Sans Light;-inkscape-font-specification:'DejaVu Sans Light, Ultra-Light'">Dynamic Views</tspan><tspan
         sodipodi:role="line"
         x="18.888889"
         y="450.69888"
         style="font-size:18px;font-style:normal;font-variant:normal;font-weight:bold;font-stretch:normal;text-align:start;line-height:150%;writing-mode:lr-tb;text-anchor:start;fill:#3491ff;fill-opacity:1;font-family:DejaVu Sans;-inkscape-font-specification:DejaVu Sans Bold"
         id="tspan3484-8-4-4">Angular</tspan><tspan
         sodipodi:role="line"
         x="18.888889"
         y="471.68991"
         style="font-size:14px;font-style:normal;font-variant:normal;font-weight:normal;font-stretch:normal;text-align:start;line-height:125%;writing-mode:lr-tb;text-anchor:start;fill:#3491ff;fill-opacity:1;font-family:DejaVu Sans;-inkscape-font-specification:DejaVu Sans"
         id="tspan4464">V²Configurator is a highly dynamic single page web</tspan><tspan
         sodipodi:role="line"
         x="18.888889"
         y="489.18991"
         style="font-size:14px;font-style:normal;font-variant:normal;font-weight:normal;font-stretch:normal;text-align:start;line-height:125%;writing-mode:lr-tb;text-anchor:start;fill:#3491ff;fill-opacity:1;font-family:DejaVu Sans;-inkscape-font-specification:DejaVu Sans"
         id="tspan4571">app. You can fold / unfold content or load configur-</tspan><tspan
         sodipodi:role="line"
         x="18.888889"
         y="506.68991"
         style="font-size:14px;font-style:normal;font-variant:normal;font-weight:normal;font-stretch:normal;text-align:start;line-height:125%;writing-mode:lr-tb;text-anchor:start;fill:#3491ff;fill-opacity:1;font-family:DejaVu Sans;-inkscape-font-specification:DejaVu Sans"
         id="tspan4573">ations which modify a hundred objects, all without</tspan><tspan
         sodipodi:role="line"
         x="18.888889"
         y="524.18994"
         style="font-size:14px;font-style:normal;font-variant:normal;font-weight:normal;font-stretch:normal;text-align:start;line-height:125%;writing-mode:lr-tb;text-anchor:start;fill:#3491ff;fill-opacity:1;font-family:DejaVu Sans;-inkscape-font-specification:DejaVu Sans"
         id="tspan4575">contacting the server. Angular is the client-</tspan><tspan
         sodipodi:role="line"
         x="18.888889"
         y="541.68994"
         style="font-size:14px;font-style:normal;font-variant:normal;font-weight:normal;font-stretch:normal;text-align:start;line-height:125%;writing-mode:lr-tb;text-anchor:start;fill:#3491ff;fill-opacity:1;font-family:DejaVu Sans;-inkscape-font-specification:DejaVu Sans"
         id="tspan4577">side frame work to build clean web apps using the</tspan><tspan
         sodipodi:role="line"
         x="18.888889"
         y="559.18994"
         style="font-size:14px;font-style:normal;font-variant:normal;font-weight:normal;font-stretch:normal;text-align:start;line-height:125%;writing-mode:lr-tb;text-anchor:start;fill:#3491ff;fill-opacity:1;font-family:DejaVu Sans;-inkscape-font-specification:DejaVu Sans"
         id="tspan4579">Model-View-Controller Design pattern with clean</tspan><tspan
         sodipodi:role="line"
         x="18.888889"
         y="576.68994"
         style="font-size:14px;font-style:normal;font-variant:normal;font-weight:normal;font-stretch:normal;text-align:start;line-height:125%;writing-mode:lr-tb;text-anchor:start;fill:#3491ff;fill-opacity:1;font-family:DejaVu Sans;-inkscape-font-specification:DejaVu Sans"
         id="tspan4581">abstraction of view, data and logic. </tspan><tspan
         sodipodi:role="line"
         x="18.888889"
         y="594.18994"
         style="font-size:14px;font-style:normal;font-variant:normal;font-weight:200;font-stretch:normal;text-align:start;line-height:125%;writing-mode:lr-tb;text-anchor:start;fill:#3491ff;fill-opacity:1;font-family:DejaVu Sans Light;-inkscape-font-specification:'DejaVu Sans Light, Ultra-Light'"
         id="tspan3492-4-2-8" /></text>
    <text
       xml:space="preserve"
       style="font-size:6px;font-style:normal;font-variant:normal;font-weight:normal;font-stretch:normal;line-height:125%;letter-spacing:0px;word-spacing:0px;fill:#3491ff;fill-opacity:1;stroke:none;font-family:ocra10;-inkscape-font-specification:ocra10"
       x="18.888889"
       y="636.15216"
       id="text2985-8-1-9-9-3-7"
       sodipodi:linespacing="125%"><tspan
         sodipodi:role="line"
         id="tspan2987-2-7-4-5-3-4"
         x="18.888889"
         y="636.15216"
         style="font-size:30px;font-style:normal;font-variant:normal;font-weight:200;font-stretch:normal;text-align:start;line-height:125%;writing-mode:lr-tb;text-anchor:start;fill:#3491ff;fill-opacity:1;font-family:DejaVu Sans Light;-inkscape-font-specification:'DejaVu Sans Light, Ultra-Light'">Data (Store &amp; Transport)</tspan><tspan
         sodipodi:role="line"
         x="18.888889"
         y="662.23901"
         style="font-size:18px;font-style:normal;font-variant:normal;font-weight:bold;font-stretch:normal;text-align:start;line-height:150%;writing-mode:lr-tb;text-anchor:start;fill:#3491ff;fill-opacity:1;font-family:DejaVu Sans;-inkscape-font-specification:DejaVu Sans Bold"
         id="tspan3484-8-4-4-2">JSON + AJAX</tspan><tspan
         sodipodi:role="line"
         x="18.888889"
         y="683.23004"
         style="font-size:14px;font-style:normal;font-variant:normal;font-weight:normal;font-stretch:normal;text-align:start;line-height:125%;writing-mode:lr-tb;text-anchor:start;fill:#3491ff;fill-opacity:1;font-family:DejaVu Sans;-inkscape-font-specification:DejaVu Sans"
         id="tspan4464-9">JSON is short for <tspan
   style="font-weight:bold"
   id="tspan4533">J</tspan>ava<tspan
   style="font-weight:bold"
   id="tspan4535">S</tspan>cript <tspan
   style="font-weight:bold"
   id="tspan4537">O</tspan>bject <tspan
   style="font-weight:bold"
   id="tspan4539">N</tspan>otation. We use</tspan><tspan
         sodipodi:role="line"
         x="18.888889"
         y="700.73004"
         style="font-size:14px;font-style:normal;font-variant:normal;font-weight:normal;font-stretch:normal;text-align:start;line-height:125%;writing-mode:lr-tb;text-anchor:start;fill:#3491ff;fill-opacity:1;font-family:DejaVu Sans;-inkscape-font-specification:DejaVu Sans"
         id="tspan4541">this data format to store Configurator Data in files</tspan><tspan
         sodipodi:role="line"
         x="18.888889"
         y="718.23004"
         style="font-size:14px;font-style:normal;font-variant:normal;font-weight:normal;font-stretch:normal;text-align:start;line-height:125%;writing-mode:lr-tb;text-anchor:start;fill:#3491ff;fill-opacity:1;font-family:DejaVu Sans;-inkscape-font-specification:DejaVu Sans"
         id="tspan4543">on the Server and then to send this data to the </tspan><tspan
         sodipodi:role="line"
         x="18.888889"
         y="735.73004"
         style="font-size:14px;font-style:normal;font-variant:normal;font-weight:normal;font-stretch:normal;text-align:start;line-height:125%;writing-mode:lr-tb;text-anchor:start;fill:#3491ff;fill-opacity:1;font-family:DejaVu Sans;-inkscape-font-specification:DejaVu Sans"
         id="tspan4545">Client via AJAX.</tspan><tspan
         sodipodi:role="line"
         x="18.888889"
         y="753.23004"
         style="font-size:14px;font-style:normal;font-variant:normal;font-weight:200;font-stretch:normal;text-align:start;line-height:125%;writing-mode:lr-tb;text-anchor:start;fill:#3491ff;fill-opacity:1;font-family:DejaVu Sans Light;-inkscape-font-specification:'DejaVu Sans Light, Ultra-Light'"
         id="tspan3492-4-2-8-8" /></text>
  </g>
</svg>
